<?xml version="1.0" encoding="UTF-8" standalone="no"?>
<svg
   xmlns="http://www.w3.org/2000/svg"
   width="65.025mm"
   height="65.969mm"
   viewBox="0 0 65.025 65.969"
   id="uzbl-logo"
   version="1.1">
  <g
     id="uzbl">
    <path
       style="fill:#000000;stroke:none"
       d="M 7.45676,0.12565 C 5.68275,1.14987 6.82113,13.90492 8.14426,19.0319 6.0335,23.62423 6.49537,28.32496 8.11306,32.9694 5.26303,32.1336 1.05456,30.20202 0.48805,31.18815 c -1.01109,1.76 2.92518,3.98209 4.0625,6.1875 -0.98645,0.91235 -4.29756,1.41285 -4.5,2.6875 -0.29228,1.84028 3.31919,3.0831 5.09375,4.84375 -1.9607,0.9312 -4.30572,2.6505 -4.03125,4.15625 0.23564,1.29277 2.88726,2.03605 4.71875,2.4375 4.03457,0.88435 8.22179,1.63451 11.75001,3.84375 3.67361,3.61498 8.78912,6.625 14.96875,6.625 6.13083,-1e-5 11.23398,-2.96118 14.90625,-6.53125 4.10302,-4.19409 16.4874,-4.9523 16.53125,-6.90625 0.0414,-1.84686 -2.72268,-2.2974 -4.09375,-3.375 2.13759,-1.07563 5.34974,-2.66539 5.15625,-4.25 -0.25311,-2.07279 -3.29911,-1.78876 -5.53125,-2.53125 1.4865,-2.23332 6.06655,-6.63316 5,-7.65625 -1.03431,-0.99216 -4.214,1.21119 -7.4375,2.125 1.77832,-4.431 1.88952,-8.82575 0.0625,-13.21875 0.62648,-5.52283 3.86772,-18.68797 0.75,-19.40625 C 55.28042,-0.38281 47.73311,5.57234 43.11306,8.5319 42.28647,8.25311 40.92079,8.4009 39.23806,7.4694 37.97688,6.77126 38.7817,5.28298 37.33847,4.81445 35.75033,4.29887 33.62253,7.019 32.94609,6.69351 32.20184,6.3354 33.40487,3.85005 31.85678,3.37381 30.10301,2.83429 28.63185,4.44382 27.73898,6.08942 27.04199,7.15111 26.22377,8.18023 22.35878,8.88361 18.58203,6.73563 9.5451,-1.08003 7.45681,0.12565 Z"
       id="face" />
    <path
       style="fill:#ddff95;stroke:none"
       d="m 43.05051,20.56315 c -6.45866,0.0948 -9.39563,4.62474 -9.40625,10.40625 2.56407,1.72191 5.08782,3.29797 7.8125,4.125 2.78943,0.84668 5.84212,0.91083 9.625,-0.375 2.40949,-3.11837 2.86113,-6.60204 0.65625,-9.84375 -2.12574,-3.12536 -5.31565,-4.36198 -8.6875,-4.3125 z"
       id="eye-left" />
    <path
       style="fill:#ddff95;stroke:none"
       d="m 22.05051,20.56315 c -3.38233,-0.29796 -6.39077,1.32567 -8.71875,4.375 -2.4262,3.17797 -1.32766,6.75172 0.6875,9.78125 3.79716,1.29693 6.85928,1.22397 9.65625,0.375 2.73683,-0.83072 5.2364,-2.42523 7.8125,-4.15625 0.53952,-6.23256 -3.43975,-9.84664 -9.4375,-10.375 z"
       id="eye-right" />
    <path
       style="fill:#ffffff;stroke:none"
       d="m 27.86961,35.33177 c -9.06823,2.02782 -14.3946,9.44171 -9.59472,17.85941 2.39046,4.19221 8.44091,7.18604 14.29962,7.18604 5.81305,0 11.75456,-2.9592 14.21745,-7.08562 5.11812,-8.5751 -0.38407,-15.91941 -9.53309,-17.79916 l -9.38926,-0.16067 z"
       id="cheeks" />
    <ellipse
       style="fill:#000000;stroke:none"
       id="nose"
       cx="32.563808"
       cy="37.223141"
       rx="7.57166"
       ry="6.7838612" />
    <ellipse
       style="fill:#000000;stroke:#000000;stroke-width:0.57558596;stroke-linecap:square;stroke-miterlimit:4"
       id="pupil-right"
       cx="21.284571"
       cy="28.552122"
       rx="1.9596822"
       ry="3.3112609" />
    <ellipse
       style="fill:#000000;stroke:#000000;stroke-width:0.57558596;stroke-linecap:square;stroke-miterlimit:4"
       id="pupil-left"
       cx="43.84164"
       cy="28.552122"
       rx="1.9596822"
       ry="3.3112609" />
    <path
       style="fill:#383838;stroke:none"
       d="m 10.59341,4.87497 c -0.13156,-0.007 -0.2466,0.0158 -0.34294,0.0709 -1.15032,0.65879 -0.206,6.73843 1.06431,12.63009 1.81742,-2.60388 4.69266,-5.10912 7.82418,-6.78367 C 15.57725,8.06754 11.9932,4.94652 10.59341,4.87492 Z"
       id="ear-right" />
    <path
       style="fill:#383838;stroke:none"
       d="m 54.53759,4.87497 c -1.39978,0.0716 -4.98383,3.19262 -8.54554,5.91737 3.13151,1.67455 6.00675,4.17979 7.82417,6.78367 1.27031,-5.89166 2.21463,-11.9713 1.06432,-12.63009 -0.0964,-0.0552 -0.21137,-0.0777 -0.34295,-0.0709 z"
       id="ear-left" />
    <path
       style="fill:#b0b0b0;stroke:none"
       d="m 23.45849,38.85072 c -0.0557,-0.0103 -0.1126,-0.0132 -0.1691,-0.009 -3.14944,0.19184 -8.05982,-0.39125 -10.9209,-1.00414 -0.34889,-0.0732 -0.69106,0.1503 -0.76426,0.49919 -0.0732,0.3489 0.15029,0.69108 0.49918,0.76428 2.98848,0.64018 7.87882,1.22721 11.2591,1.02131 0.32219,-0.0181 0.58109,-0.27218 0.60537,-0.59397 0.0243,-0.32179 -0.19357,-0.61179 -0.50939,-0.67808 z"
       id="whisker-right-top" />
    <path
       style="fill:#b0b0b0;stroke:none"
       d="m 25.0783,42.24898 c -0.0784,-0.0111 -0.15824,-0.008 -0.23539,0.0104 -3.46903,0.75446 -7.0994,1.37981 -10.07908,1.47416 -0.35509,0.013 -0.63238,0.31147 -0.61934,0.66657 0.013,0.3551 0.31147,0.6324 0.66656,0.61936 3.12282,-0.0989 6.79841,-0.73615 10.3061,-1.49902 0.31257,-0.0576 0.53629,-0.33473 0.52658,-0.65241 -0.01,-0.31769 -0.24993,-0.58068 -0.56543,-0.61904 l 0,0 z"
       id="whisker-right-bottom" />
    <path
       style="fill:#b0b0b0;stroke:none"
       d="m 41.67003,38.85072 c 0.0557,-0.0103 0.1126,-0.0132 0.1691,-0.009 3.14944,0.19184 8.05982,-0.39125 10.9209,-1.00414 0.34889,-0.0732 0.69106,0.1503 0.76426,0.49919 0.0732,0.3489 -0.15029,0.69108 -0.49918,0.76428 -2.98848,0.64018 -7.87882,1.22721 -11.2591,1.02131 -0.32219,-0.0181 -0.58109,-0.27218 -0.60537,-0.59397 -0.0243,-0.32179 0.19357,-0.61179 0.50939,-0.67808 z"
       id="whisker-left-top" />
    <path
       style="fill:#b0b0b0;stroke:none"
       d="m 40.05022,42.24898 c 0.0784,-0.0111 0.15824,-0.008 0.23539,0.0104 3.46903,0.75446 7.0994,1.37981 10.07908,1.47416 0.35509,0.013 0.63238,0.31147 0.61934,0.66657 -0.013,0.3551 -0.31147,0.6324 -0.66656,0.61936 -3.12282,-0.0989 -6.79841,-0.73615 -10.3061,-1.49902 -0.31257,-0.0576 -0.53629,-0.33473 -0.52658,-0.65241 0.01,-0.31769 0.24993,-0.58068 0.56543,-0.61904 l 0,0 z"
       id="whisker-left-bottom" />
    <path
       style="fill:#000000;stroke:#000000;stroke-width:2;stroke-linecap:round;stroke-linejoin:round;stroke-miterlimit:4"
       d="m 23.44751,47.91019 c -0.0195,0.17173 0.52366,1.57063 0.63202,2.0679 0.74321,3.41134 3.62017,5.46381 8.48429,5.46382 4.86411,-1e-5 7.74107,-2.05248 8.48429,-5.46382 0.10833,-0.49727 0.65155,-1.89617 0.632,-2.0679 -1.95761,1.29028 -5.49893,0.61379 -9.11629,0.61378 -3.61738,1e-5 -7.15871,0.6765 -9.11631,-0.61378 z"
       id="tongue" />
    <g
       id="teeth"
       transform="matrix(0.6791858,0,0,0.6683349,-64.71008,-255.65041)">
      <path
         id="tooth-right"
         d="m 132.88896,456.0374 c 1.10427,0.11123 2.19975,0.23126 3.41813,0.22839 -0.10715,1.64417 -0.20701,3.401 0.0862,5.52344 -1.40125,-1.22553 -3.19738,-4.10073 -3.5043,-5.75183 z"
         style="fill:#ffffff;stroke:none" />
      <path
         id="tooth-left"
         d="m 153.55363,456.0374 c -1.10427,0.11123 -2.19975,0.23126 -3.41813,0.22839 0.10715,1.64417 0.20701,3.401 -0.0862,5.52344 1.40125,-1.22553 3.19738,-4.10073 3.5043,-5.75183 z"
         style="fill:#ffffff;stroke:none" />
    </g>
    <path
       style="fill:#818181;stroke:none"
       d="m 21.99338,14.94029 c -1.11748,-0.11507 -2.33262,-0.10602 -3.566,0.11412 -1.60671,0.28677 -2.99453,1.27256 -4.02245,2.16812 -1.0279,0.89557 -1.71168,1.74021 -1.71168,1.74021 -0.28589,0.3696 -0.24659,0.89539 0.0911,1.21837 0.33767,0.32299 0.84664,0.31606 1.22122,0.0369 3.92616,-2.92628 8.62857,-2.60266 13.20847,-1.8258 0.44141,0.10132 0.89039,-0.13627 1.05488,-0.55824 0.16449,-0.42197 10e-4,-0.91259 -0.39873,-1.12491 -1.83504,-0.97408 -3.83048,-1.43872 -5.87678,-1.76874 z"
       id="eyebrow-right" />
    <path
       style="fill:#818181;stroke:none"
       d="m 43.13423,14.94029 c 1.11748,-0.11507 2.33262,-0.10602 3.566,0.11412 1.60671,0.28677 2.99453,1.27256 4.02245,2.16812 1.0279,0.89557 1.71168,1.74021 1.71168,1.74021 0.28589,0.3696 0.24659,0.89539 -0.0911,1.21837 -0.33767,0.32299 -0.84664,0.31606 -1.22122,0.0369 -3.92616,-2.92628 -8.62857,-2.60266 -13.20847,-1.8258 -0.44141,0.10132 -0.89039,-0.13627 -1.05488,-0.55824 -0.16449,-0.42197 -0.001,-0.91259 0.39873,-1.12491 1.83504,-0.97408 3.83048,-1.43872 5.87678,-1.76874 z"
       id="eyebrow-left" />
    <ellipse
       style="fill:#4d4d4d;stroke:none"
       id="nose-glint"
       cx="32.563808"
       cy="34.399899"
       rx="2.9617851"
       ry="2.0992811" />
  </g>
</svg>
